PathFileType	4	(X/Y/Z)	./resultDataOpenSim/trcMotMarkerGrf/sub06/qtm-02-03.trc
DataRate	CameraRate	NumFrames	NumMarkers	Units	OrigDataRate	OrigDataStartFrame	OrigNumFrames
250.000000	250.000000	8	24	m	250.000000	259	516
Frame#	Time	L.Toe.Tip			R.Toe.Tip			L.Ankle.Lat			R.Ankle.Lat			L.Ankle.Med			R.Ankle.Med			L.Heel			R.Heel			L.Knee.Lat			R.Knee.Lat			L.Knee.Med			R.Knee.Med			L.Thigh.Upper			R.Thigh.Upper			L.ASIS			R.ASIS			V.Sacral			L.Acromium			R.Acromium			C7			L.Elbow			R.Elbow			L.Wrist.Lat			R.Wrist.Lat
		X1	Y1	Z1	X2	Y2	Z2	X3	Y3	Z3	X4	Y4	Z4	X5	Y5	Z5	X6	Y6	Z6	X7	Y7	Z7	X8	Y8	Z8	X9	Y9	Z9	X10	Y10	Z10	X11	Y11	Z11	X12	Y12	Z12	X13	Y13	Z13	X14	Y14	Z14	X15	Y15	Z15	X16	Y16	Z16	X17	Y17	Z17	X18	Y18	Z18	X19	Y19	Z19	X20	Y20	Z20	X21	Y21	Z21	X22	Y22	Z22	X23	Y23	Z23	X24	Y24	Z24

259	1.032	0.038413609	0.0091371953	-0.033875001	0.71927746	0.12826849	0.1537513	-0.072698258	0.070714462	-0.05759748	0.58263362	0.096146894	0.16262177	-0.065761414	0.086393665	0.028641401	0.60214936	0.13077988	0.080029121	-0.14907965	0.063219197	-0.0096569473	0.55358339	0.055754229	0.094449572	0.085290623	0.40759902	-0.07869826	0.45115094	0.46134706	0.17001635	0.076191249	0.41006687	0.042450823	0.4414683	0.43651052	0.040543584	0.19118477	0.77594985	-0.14300378	0.25598662	0.77447668	0.20253229	0.28253208	0.81586288	-0.11355899	0.32960449	0.8263519	0.12936711	0.12302813	0.90072515	0.045999039	0.27012526	1.3105406	-0.1565246	0.246537	1.2883397	0.20506571	0.18459309	1.3381535	0.019220542	0.29940307	0.98556385	-0.23751896	0.088047403	1.0201224	0.24372714	0.53344626	0.92014869	-0.19425045	0.098032605	0.80023623	0.3365841
260	1.036	0.038441332	0.0091413676	-0.0338824	0.72917912	0.129916	0.15258587	-0.071724238	0.071679267	-0.057843016	0.59340238	0.095868582	0.16180189	-0.064769071	0.087321778	0.028431347	0.61194665	0.13080768	0.079169257	-0.14826622	0.065087569	-0.010002728	0.56407687	0.055126942	0.094010326	0.089776069	0.4069439	-0.078678165	0.45926043	0.46062303	0.16928815	0.081014634	0.40931883	0.04250338	0.44872782	0.43521182	0.039616135	0.19709296	0.7746762	-0.14251067	0.26440663	0.77305599	0.20282718	0.28875697	0.81429025	-0.11366027	0.33712708	0.82510508	0.12918977	0.13178551	0.89903204	0.045560657	0.27666733	1.3091347	-0.15603921	0.25324971	1.2867948	0.20565859	0.1914093	1.336779	0.019630467	0.30692354	0.98482117	-0.23729881	0.094500611	1.0188131	0.24402516	0.54185406	0.92049019	-0.19308966	0.10323299	0.79902961	0.33716533
261	1.04	0.038476984	0.0091493842	-0.033887028	0.73839643	0.13090473	0.15138443	-0.070689132	0.072723994	-0.058090978	0.60335785	0.095377097	0.1608054	-0.063714383	0.088324647	0.028206846	0.62113049	0.13059722	0.078134582	-0.14735598	0.06707293	-0.010361666	0.57380486	0.054381126	0.093299188	0.094378152	0.4062853	-0.078655283	0.46747992	0.45997636	0.16857895	0.086040141	0.40854105	0.042511418	0.45610037	0.43423919	0.038755894	0.20310101	0.77341772	-0.1420254	0.27269656	0.77166034	0.20304688	0.29510991	0.81279001	-0.11374258	0.34467248	0.8238892	0.12903073	0.14045796	0.89734487	0.045066226	0.28321627	1.3077627	-0.15551942	0.26001081	1.2852776	0.20628671	0.19817044	1.3354484	0.020209561	0.31437218	0.98408221	-0.23702067	0.10097527	1.0174854	0.24435152	0.55017616	0.92074503	-0.19192935	0.10859241	0.79781729	0.33774172
262	1.044	0.038525881	0.0091610743	-0.033884622	0.74697961	0.13121608	0.15016846	-0.069585725	0.073846485	-0.058353607	0.61236065	0.094786002	0.15969577	-0.062598763	0.089395752	0.027956911	0.62968126	0.13012016	0.07693816	-0.14634838	0.069175084	-0.010732249	0.58277024	0.053501327	0.092336548	0.099156216	0.40563618	-0.078664414	0.47572216	0.45935738	0.16789221	0.091278589	0.40774871	0.042465052	0.46355722	0.43357612	0.037959043	0.20921861	0.77218404	-0.1415531	0.28087952	0.77033106	0.20320689	0.30156222	0.81147529	-0.11378809	0.35225705	0.82270483	0.12888618	0.14829674	0.89595873	0.045179895	0.28977667	1.3064318	-0.15496769	0.2668267	1.2837933	0.20694807	0.20487881	1.3341802	0.020962795	0.32177153	0.98333309	-0.23668853	0.10750118	1.0161435	0.24470341	0.55841326	0.9209111	-0.19077475	0.11412037	0.79660167	0.33831173
263	1.048	0.038594394	0.0091757807	-0.033868974	0.75495964	0.13087359	0.14893346	-0.068403454	0.075039797	-0.058636875	0.62049779	0.094040853	0.15847644	-0.061420316	0.09053152	0.027669574	0.63757102	0.1293231	0.075590978	-0.14525343	0.071395235	-0.01110839	0.59097219	0.052473136	0.091164695	0.10412014	0.404999	-0.078705799	0.48391541	0.4587494	0.16721081	0.096710732	0.40696243	0.042373617	0.47106555	0.43319047	0.037225971	0.21545404	0.7709801	-0.1410981	0.28909342	0.76914731	0.20339078	0.30810265	0.81034391	-0.11381566	0.35989347	0.82155083	0.12874494	0.15534886	0.89486596	0.046004668	0.29635528	1.3051475	-0.15438508	0.27369905	1.2823496	0.20764091	0.21161123	1.3329611	0.021797618	0.32914448	0.98255915	-0.23630674	0.11412802	1.0148044	0.24508182	0.56656633	0.92099229	-0.18962976	0.11982494	0.79538611	0.33887323
264	1.052	0.038684234	0.0091944622	-0.033842525	0.76235105	0.12992773	0.14764428	-0.06712793	0.076293138	-0.058933737	0.62793749	0.093028279	0.15712819	-0.060166329	0.091739095	0.027339485	0.64478581	0.12816145	0.07410898	-0.14407668	0.073734099	-0.011501428	0.59841745	0.051283039	0.089836582	0.10926457	0.40437407	-0.078771117	0.49202358	0.45815691	0.1665115	0.10231742	0.40619647	0.042246758	0.47859591	0.43304659	0.036559696	0.22181221	0.76980815	-0.14065675	0.29737805	0.76814202	0.20362932	0.31473168	0.80932684	-0.11385162	0.36758407	0.82042812	0.1285901	0.16217874	0.89388995	0.047108601	0.30295976	1.3039143	-0.15376919	0.28062584	1.2809555	0.20836472	0.21841964	1.331774	0.022648797	0.33651605	0.98174328	-0.23588076	0.12089033	1.0134879	0.24548725	0.57463629	0.9209956	-0.18849754	0.12570594	0.79417647	0.33942196
265	1.056	0.038790781	0.0092213212	-0.033820283	0.76915536	0.1284442	0.14624185	-0.065744815	0.077598896	-0.059233629	0.63478866	0.091685097	0.15564903	-0.058804533	0.093035554	0.026973652	0.65134796	0.12664904	0.072517923	-0.14280797	0.076188721	-0.01194438	0.60511816	0.049918716	0.08840198	0.11458652	0.40376493	-0.078859472	0.50004673	0.45758757	0.16577847	0.10809581	0.40545431	0.042085412	0.48612393	0.43310728	0.03596594	0.22829543	0.76867075	-0.14021915	0.30560939	0.76727037	0.20386626	0.32145193	0.80836413	-0.11390401	0.37533204	0.81934575	0.1284139	0.16921276	0.89291437	0.04807353	0.3095956	1.3027386	-0.15311462	0.28760656	1.2796192	0.20911919	0.22530356	1.3306137	0.023510413	0.34391494	0.98086402	-0.23541767	0.12778407	1.0122069	0.24591572	0.58262194	0.92092597	-0.18738481	0.13175997	0.79298233	0.33995234
266	1.06	0.038909699	0.0092612603	-0.033817513	0.77537121	0.12649233	0.1446586	-0.064247873	0.07897139	-0.05954767	0.64108058	0.090015168	0.15406311	-0.057286229	0.094441991	0.026587338	0.65731123	0.12486292	0.070847269	-0.14143074	0.078757083	-0.012460964	0.61108495	0.04837282	0.086904461	0.12008445	0.40317458	-0.078968846	0.50800114	0.45703556	0.16500883	0.11405425	0.40473281	0.041885444	0.49363164	0.433328	0.035453203	0.23490394	0.76756755	-0.13977886	0.31366352	0.76647421	0.20404724	0.32826022	0.80743112	-0.11396567	0.3831477	0.81832066	0.12822319	0.17651437	0.89193497	0.048804616	0.31626462	1.3016286	-0.15241457	0.29464506	1.278346	0.20990276	0.23224303	1.3294824	0.024397102	0.35137286	0.979898	-0.23492447	0.13478017	1.0109715	0.24636059	0.59051886	0.92078368	-0.18629998	0.13799217	0.79181317	0.34046115
